<!--?xml version="1.0" standalone="no"?-->
              <svg id="sw-js-blob-svg" viewBox="0 0 100 100" xmlns="http://www.w3.org/2000/svg" version="1.1">
                    <defs> 
                        <linearGradient id="sw-gradient" x1="0" x2="1" y1="1" y2="0">
                            <stop id="stop1" stop-color="rgba(147.209, 209.128, 226.611, 1)" offset="0%"></stop>
                            <stop id="stop2" stop-color="rgba(255, 255, 255, 1)" offset="100%"></stop>
                        </linearGradient>
                    </defs>
                <path fill="rgba(147.209, 209.128, 226.611, 1)" d="M22.2,-40.3C27.7,-35.2,30.4,-27.1,33.5,-19.9C36.6,-12.7,40.1,-6.4,41.8,1C43.5,8.3,43.4,16.7,39.4,22.4C35.5,28.1,27.6,31.2,20.4,34.3C13.2,37.5,6.6,40.6,-0.6,41.6C-7.7,42.5,-15.4,41.3,-21,37.2C-26.6,33.1,-30,26.2,-34.2,19.6C-38.3,12.9,-43.1,6.4,-43.5,-0.2C-43.9,-6.9,-39.9,-13.8,-35.4,-19.8C-30.8,-25.7,-25.7,-30.7,-19.7,-35.5C-13.7,-40.3,-6.9,-45,0.7,-46.2C8.3,-47.5,16.7,-45.4,22.2,-40.3Z" width="100%" height="100%" transform="translate(50 50)" stroke-width="0" style="transition: all 0.3s ease 0s;" stroke="rgba(151.117, 151.164, 217.504, 1)"></path>
              </svg>