<!--?xml version="1.0" standalone="no"?-->
              <svg id="sw-js-blob-svg" viewBox="0 0 100 100" xmlns="http://www.w3.org/2000/svg" version="1.1">
                    <defs> 
                        <linearGradient id="sw-gradient" x1="0" x2="1" y1="1" y2="0">
                            <stop id="stop1" stop-color="rgba(151.117, 151.164, 217.504, 1)" offset="0%"></stop>
                            <stop id="stop2" stop-color="rgba(114.295, 114.382, 237.995, 1)" offset="100%"></stop>
                        </linearGradient>
                    </defs>
                <path fill="url(#sw-gradient)" d="M20.6,-35.2C27.6,-31.6,34.9,-28,38.7,-22.1C42.5,-16.2,42.9,-8.1,42.9,0C42.9,8.1,42.5,16.2,39.2,23C36,29.8,29.8,35.3,22.7,38.9C15.7,42.4,7.9,44,0.1,43.8C-7.7,43.7,-15.3,41.8,-21.7,37.8C-28.1,33.9,-33.2,28,-36.9,21.4C-40.6,14.8,-42.9,7.4,-42.2,0.4C-41.4,-6.5,-37.7,-13.1,-33.7,-19.1C-29.6,-25.2,-25.3,-30.7,-19.6,-35.1C-13.9,-39.5,-7,-42.9,-0.1,-42.7C6.8,-42.6,13.6,-38.9,20.6,-35.2Z" width="100%" height="100%" transform="translate(50 50)" stroke-width="0" style="transition: all 0.3s ease 0s;" stroke="url(#sw-gradient)"></path>
              </svg>